<mxfile host="65bd71144e">
    <diagram id="nwy1m5kQhqWDR467X8BF" name="Page-1">
        <mxGraphModel dx="4848" dy="2948" grid="0" gridSize="10" guides="1" tooltips="1" connect="1" arrows="1" fold="1" page="0" pageScale="1" pageWidth="850" pageHeight="1100" math="0" shadow="0">
            <root>
                <mxCell id="0"/>
                <mxCell id="1" parent="0"/>
                <mxCell id="11" style="edgeStyle=none;html=1;" edge="1" parent="1" source="5" target="6">
                    <mxGeometry relative="1" as="geometry"/>
                </mxCell>
                <mxCell id="23" style="edgeStyle=none;html=1;entryX=1;entryY=0.5;entryDx=0;entryDy=0;fontFamily=Times New Roman;" edge="1" parent="1" source="5" target="8">
                    <mxGeometry relative="1" as="geometry">
                        <Array as="points"/>
                    </mxGeometry>
                </mxCell>
                <mxCell id="5" value="User" style="rounded=0;whiteSpace=wrap;html=1;" vertex="1" parent="1">
                    <mxGeometry x="39" y="-212" width="120" height="60" as="geometry"/>
                </mxCell>
                <mxCell id="6" value="See products" style="rounded=0;whiteSpace=wrap;html=1;" vertex="1" parent="1">
                    <mxGeometry x="140" y="-449" width="120" height="60" as="geometry"/>
                </mxCell>
                <mxCell id="32" value="" style="edgeStyle=none;html=1;fontFamily=Times New Roman;" edge="1" parent="1" source="7" target="31">
                    <mxGeometry relative="1" as="geometry"/>
                </mxCell>
                <mxCell id="36" style="edgeStyle=none;html=1;fontFamily=Times New Roman;" edge="1" parent="1" source="7" target="34">
                    <mxGeometry relative="1" as="geometry"/>
                </mxCell>
                <mxCell id="38" style="edgeStyle=none;html=1;entryX=1;entryY=0.5;entryDx=0;entryDy=0;fontFamily=Times New Roman;" edge="1" parent="1" source="7" target="37">
                    <mxGeometry relative="1" as="geometry"/>
                </mxCell>
                <mxCell id="7" value="Bag" style="rounded=0;whiteSpace=wrap;html=1;" vertex="1" parent="1">
                    <mxGeometry x="-295" y="-212" width="120" height="60" as="geometry"/>
                </mxCell>
                <mxCell id="14" style="edgeStyle=none;html=1;fontFamily=Times New Roman;" edge="1" parent="1" source="8" target="13">
                    <mxGeometry relative="1" as="geometry"/>
                </mxCell>
                <mxCell id="22" style="edgeStyle=none;html=1;fontFamily=Times New Roman;" edge="1" parent="1" source="8" target="7">
                    <mxGeometry relative="1" as="geometry"/>
                </mxCell>
                <mxCell id="8" value="Auth" style="ellipse;whiteSpace=wrap;html=1;rounded=0;" vertex="1" parent="1">
                    <mxGeometry x="-136" y="-220" width="80" height="80" as="geometry"/>
                </mxCell>
                <mxCell id="13" value="checkout" style="rounded=0;whiteSpace=wrap;html=1;" vertex="1" parent="1">
                    <mxGeometry x="-233" y="-42" width="120" height="60" as="geometry"/>
                </mxCell>
                <mxCell id="24" style="edgeStyle=none;html=1;fontFamily=Times New Roman;" edge="1" parent="1" source="18" target="6">
                    <mxGeometry relative="1" as="geometry"/>
                </mxCell>
                <mxCell id="29" style="edgeStyle=none;html=1;fontFamily=Times New Roman;entryX=0;entryY=0.5;entryDx=0;entryDy=0;" edge="1" parent="1" source="18" target="26">
                    <mxGeometry relative="1" as="geometry">
                        <mxPoint x="559" y="-167" as="targetPoint"/>
                    </mxGeometry>
                </mxCell>
                <mxCell id="30" style="edgeStyle=none;html=1;fontFamily=Times New Roman;" edge="1" parent="1" source="18" target="28">
                    <mxGeometry relative="1" as="geometry"/>
                </mxCell>
                <mxCell id="42" style="edgeStyle=none;html=1;fontFamily=Times New Roman;entryX=0;entryY=0.5;entryDx=0;entryDy=0;" edge="1" parent="1" source="18" target="41">
                    <mxGeometry relative="1" as="geometry"/>
                </mxCell>
                <mxCell id="18" value="Admin" style="rounded=0;whiteSpace=wrap;html=1;" vertex="1" parent="1">
                    <mxGeometry x="248" y="-207" width="120" height="60" as="geometry"/>
                </mxCell>
                <mxCell id="26" value="remove product" style="rounded=0;whiteSpace=wrap;html=1;" vertex="1" parent="1">
                    <mxGeometry x="561" y="-299" width="120" height="60" as="geometry"/>
                </mxCell>
                <mxCell id="28" value="add Product" style="rounded=0;whiteSpace=wrap;html=1;" vertex="1" parent="1">
                    <mxGeometry x="565" y="-200" width="120" height="60" as="geometry"/>
                </mxCell>
                <mxCell id="31" value="Add" style="ellipse;whiteSpace=wrap;html=1;rounded=0;" vertex="1" parent="1">
                    <mxGeometry x="-406" y="-315" width="80" height="80" as="geometry"/>
                </mxCell>
                <mxCell id="34" value="Remove" style="ellipse;whiteSpace=wrap;html=1;rounded=0;" vertex="1" parent="1">
                    <mxGeometry x="-406" y="-220" width="80" height="80" as="geometry"/>
                </mxCell>
                <mxCell id="37" value="update" style="ellipse;whiteSpace=wrap;html=1;rounded=0;" vertex="1" parent="1">
                    <mxGeometry x="-406" y="-118" width="80" height="80" as="geometry"/>
                </mxCell>
                <mxCell id="41" value="update Product" style="rounded=0;whiteSpace=wrap;html=1;" vertex="1" parent="1">
                    <mxGeometry x="568" y="-108" width="120" height="60" as="geometry"/>
                </mxCell>
                <mxCell id="46" value="Untitled Layer" parent="0"/>
                <mxCell id="47" style="edgeStyle=none;html=1;" edge="1" parent="46" source="49" target="50">
                    <mxGeometry relative="1" as="geometry"/>
                </mxCell>
                <mxCell id="48" style="edgeStyle=none;html=1;entryX=1;entryY=0.5;entryDx=0;entryDy=0;fontFamily=Times New Roman;" edge="1" parent="46" source="49" target="57">
                    <mxGeometry relative="1" as="geometry">
                        <Array as="points"/>
                    </mxGeometry>
                </mxCell>
                <mxCell id="49" value="User" style="rounded=0;whiteSpace=wrap;html=1;" vertex="1" parent="46">
                    <mxGeometry x="39" y="-212" width="120" height="60" as="geometry"/>
                </mxCell>
                <mxCell id="50" value="See products" style="rounded=0;whiteSpace=wrap;html=1;" vertex="1" parent="46">
                    <mxGeometry x="140" y="-449" width="120" height="60" as="geometry"/>
                </mxCell>
                <mxCell id="51" value="" style="edgeStyle=none;html=1;fontFamily=Times New Roman;" edge="1" parent="46" source="54" target="66">
                    <mxGeometry relative="1" as="geometry"/>
                </mxCell>
                <mxCell id="52" style="edgeStyle=none;html=1;fontFamily=Times New Roman;" edge="1" parent="46" source="54" target="67">
                    <mxGeometry relative="1" as="geometry"/>
                </mxCell>
                <mxCell id="53" style="edgeStyle=none;html=1;entryX=1;entryY=0.5;entryDx=0;entryDy=0;fontFamily=Times New Roman;" edge="1" parent="46" source="54" target="68">
                    <mxGeometry relative="1" as="geometry"/>
                </mxCell>
                <mxCell id="54" value="Bag" style="rounded=0;whiteSpace=wrap;html=1;" vertex="1" parent="46">
                    <mxGeometry x="-295" y="-212" width="120" height="60" as="geometry"/>
                </mxCell>
                <mxCell id="55" style="edgeStyle=none;html=1;fontFamily=Times New Roman;" edge="1" parent="46" source="57" target="58">
                    <mxGeometry relative="1" as="geometry"/>
                </mxCell>
                <mxCell id="56" style="edgeStyle=none;html=1;fontFamily=Times New Roman;" edge="1" parent="46" source="57" target="54">
                    <mxGeometry relative="1" as="geometry"/>
                </mxCell>
                <mxCell id="57" value="Auth" style="ellipse;whiteSpace=wrap;html=1;rounded=0;" vertex="1" parent="46">
                    <mxGeometry x="-136" y="-220" width="80" height="80" as="geometry"/>
                </mxCell>
                <mxCell id="58" value="checkout" style="rounded=0;whiteSpace=wrap;html=1;" vertex="1" parent="46">
                    <mxGeometry x="-233" y="-42" width="120" height="60" as="geometry"/>
                </mxCell>
                <mxCell id="59" style="edgeStyle=none;html=1;fontFamily=Times New Roman;" edge="1" parent="46" source="63" target="50">
                    <mxGeometry relative="1" as="geometry"/>
                </mxCell>
                <mxCell id="60" style="edgeStyle=none;html=1;fontFamily=Times New Roman;entryX=0;entryY=0.5;entryDx=0;entryDy=0;" edge="1" parent="46" source="63" target="64">
                    <mxGeometry relative="1" as="geometry">
                        <mxPoint x="559" y="-167" as="targetPoint"/>
                    </mxGeometry>
                </mxCell>
                <mxCell id="61" style="edgeStyle=none;html=1;fontFamily=Times New Roman;" edge="1" parent="46" source="63" target="65">
                    <mxGeometry relative="1" as="geometry"/>
                </mxCell>
                <mxCell id="62" style="edgeStyle=none;html=1;fontFamily=Times New Roman;entryX=0;entryY=0.5;entryDx=0;entryDy=0;" edge="1" parent="46" source="63" target="69">
                    <mxGeometry relative="1" as="geometry"/>
                </mxCell>
                <mxCell id="63" value="Admin" style="rounded=0;whiteSpace=wrap;html=1;" vertex="1" parent="46">
                    <mxGeometry x="248" y="-207" width="120" height="60" as="geometry"/>
                </mxCell>
                <mxCell id="64" value="remove product" style="rounded=0;whiteSpace=wrap;html=1;" vertex="1" parent="46">
                    <mxGeometry x="561" y="-299" width="120" height="60" as="geometry"/>
                </mxCell>
                <mxCell id="65" value="add Product" style="rounded=0;whiteSpace=wrap;html=1;" vertex="1" parent="46">
                    <mxGeometry x="565" y="-200" width="120" height="60" as="geometry"/>
                </mxCell>
                <mxCell id="66" value="Add" style="ellipse;whiteSpace=wrap;html=1;rounded=0;" vertex="1" parent="46">
                    <mxGeometry x="-406" y="-315" width="80" height="80" as="geometry"/>
                </mxCell>
                <mxCell id="67" value="Remove" style="ellipse;whiteSpace=wrap;html=1;rounded=0;" vertex="1" parent="46">
                    <mxGeometry x="-406" y="-220" width="80" height="80" as="geometry"/>
                </mxCell>
                <mxCell id="68" value="update" style="ellipse;whiteSpace=wrap;html=1;rounded=0;" vertex="1" parent="46">
                    <mxGeometry x="-406" y="-118" width="80" height="80" as="geometry"/>
                </mxCell>
                <mxCell id="69" value="update Product" style="rounded=0;whiteSpace=wrap;html=1;" vertex="1" parent="46">
                    <mxGeometry x="568" y="-108" width="120" height="60" as="geometry"/>
                </mxCell>
                <mxCell id="86" value="&lt;br&gt;&lt;div style=&quot;text-align: center;&quot;&gt;&lt;u&gt;&lt;font style=&quot;font-size: 18px;&quot;&gt;Product&lt;/font&gt;&lt;/u&gt;&lt;/div&gt;&lt;span style=&quot;border-color: rgb(0, 0, 0); color: rgb(240, 240, 240); font-family: &amp;quot;Times New Roman&amp;quot;; font-style: normal; font-variant-ligatures: normal; font-variant-caps: normal; font-weight: 400; letter-spacing: normal; orphans: 2; text-indent: 0px; text-transform: none; widows: 2; word-spacing: 0px; -webkit-text-stroke-width: 0px; background-color: rgb(24, 20, 29);&quot;&gt;&lt;ul style=&quot;&quot;&gt;&lt;li&gt;&lt;span style=&quot;border-color: rgb(0, 0, 0); color: rgb(240, 240, 240); font-family: &amp;quot;Times New Roman&amp;quot;; font-size: 12px; font-style: normal; font-variant-ligatures: normal; font-variant-caps: normal; font-weight: 400; letter-spacing: normal; orphans: 2; text-indent: 0px; text-transform: none; widows: 2; word-spacing: 0px; -webkit-text-stroke-width: 0px; background-color: rgb(24, 20, 29);&quot;&gt;name:String&lt;/span&gt;&lt;/li&gt;&lt;li style=&quot;font-size: 12px;&quot;&gt;description: String&lt;/li&gt;&lt;li style=&quot;font-size: 12px;&quot;&gt;price:Integer&lt;/li&gt;&lt;li style=&quot;font-size: 12px;&quot;&gt;image:Base64&lt;/li&gt;&lt;li style=&quot;font-size: 12px;&quot;&gt;quantity:Integer&lt;/li&gt;&lt;/ul&gt;&lt;/span&gt;" style="rounded=0;whiteSpace=wrap;html=1;shadow=0;fontFamily=Times New Roman;align=left;strokeColor=#FFFFFF;" vertex="1" parent="46">
                    <mxGeometry x="-434" y="-734" width="151" height="184" as="geometry"/>
                </mxCell>
            </root>
        </mxGraphModel>
    </diagram>
</mxfile>